<?xml  version="1.0" encoding="UTF-8"?>
<!DOCTYPE svg PUBLIC "-//W3C//DTD SVG 1.0//EN" "http://www.w3.org/TR/2001/REC-SVG-20010904/DTD/svg10.dtd" >
<svg xmlns="http://www.w3.org/2000/svg" >
<metadata>
<version>1.0</version>
<id><![CDATA[Proxima N W01 Cd Smbd It]]></id>
<vendor>Monotype Imaging Inc.</vendor>
<credits>
<name>Fonts.com WebFonts</name>
<URL>http://webfonts.fonts.com</URL>
<role>Home of the Web fonts</role>
</credits>
<license>
<URL>http://webfonts.fonts.com/Legal</URL>
</license>
<copyright><![CDATA[Copyright (c) Mark Simonson, 2005. All rights reserved.]]></copyright>
<trademark><![CDATA[Proxima Nova is a trademark of Mark Simonson.]]></trademark>
<licensee>
<name></name>
</licensee>
</metadata>
<defs >
<font horiz-adv-x="442" id="adb5fb48-2e72-4676-9d5f-a0380522ecce">
<font-face font-family="" panose-1="2 0 5 6 3 0 0 2 0 4" ascent="741" descent="-259" units-per-em="1000" alphabetic="0">
</font-face>
<missing-glyph horiz-adv-x="0" />

<glyph unicode="&#xA;" />
<glyph unicode="&#xD;" horiz-adv-x="0" />
<glyph unicode=" " horiz-adv-x="212" />
<glyph unicode="!" horiz-adv-x="242" d="M69 201L154 667H275L154 201H69ZM73 -11Q47 -11 30 7T12 51Q12 81 34 102T86 124Q112 124 129 106T147 62Q147 32 125 11T73 -11Z"  />
<glyph unicode="&quot;" horiz-adv-x="373" d="M115 395Q118 451 122 497Q123 516 124 535T127 570T129 596T130 610Q131 639 149 658T195 677Q215 677 230 663T245 626Q245 618 243 611T239 599Q238 597 235 588T225 563T212 530T198 493Q181 449 160 395H115ZM278 395Q281 451 285 497Q286 516 287 535T290 570T292 596T293 610Q294 639 312 658T358 677Q378 677 393 663T408 626Q408 618 406 611T402 599Q401 597 398 588T388 563T375 530T361 493Q344 449 324 395H278Z"  />
<glyph unicode="#" horiz-adv-x="524" d="M155 0L244 176H160L72 0H-5L84 176H2L35 242H118L210 425H127L158 490H243L332 667H408L319 490H403L491 667H567L478 490H561L530 425H446L352 242H439L406 176H319L231 0H155ZM369 425H286L194 242H276L369 425Z"  />
<glyph unicode="$" horiz-adv-x="487" d="M157 -6Q104 4 62 28T-3 86L66 167Q85 140 114 120T179 92L224 298Q200 312 177 328T136 365T106 412T94 471Q94 512 110 549T154 614T222 659T309 678L329 768H406L384 670Q423 660 457 641T514 594L448 514Q431 535 409 549T362 571L319 382Q343 367 366 351T407 314T436 267T448 208Q448 165 433 126T390 57T322 9T232 -12L213 -100H136L157 -6ZM331 189Q331 209 320 224T291 254L255 90Q291 99 311 126T331 189ZM211 490Q211 471 222 456T253 426L287 578Q253 571 232 546T211 490Z"  />
<glyph unicode="%" horiz-adv-x="663" d="M75 0L573 667H630L131 0H75ZM454 -12Q394 -12 358 24T321 118Q321 161 335 198T372 262T425 304T488 319Q517 319 541 309T583 282T611 241T621 189Q621 145 607 109T570 45T516 3T454 -12ZM457 52Q474 52 490 62T519 89T540 130T548 182Q548 217 531 236T485 255Q468 255 452 245T422 218T401 177T393 125Q393 90 410 71T457 52ZM214 347Q184 347 160 356T119 383T92 424T82 477Q82 520 95 557T132 620T185 662T248 677Q308 677 344 641T380 547Q380 503 367 467T330 404T277 362T214 347ZM217 410Q234 410 250 420T280 447T301 489T309 541Q309 575 292 594T245 613Q228 613 212 603T182 576T161 535T153 483Q153 448 170 429T217 410Z"  />
<glyph unicode="&amp;" horiz-adv-x="535" d="M348 0L324 42Q290 17 254 3T177 -12Q141 -12 110 -3T57 26T22 74T9 142Q9 190 23 226T61 291T115 340T179 378Q172 405 169 430T165 480Q165 521 179 557T216 619T271 661T338 677Q366 677 390 670T432 647T460 609T471 556Q471 514 455 483T414 428T355 386T288 349Q296 330 303 312T320 273Q330 249 339 229T357 188Q382 221 402 256T436 319L509 276Q484 231 456 189T396 110Q410 84 425 58T459 0H348ZM195 68Q218 68 241 79T287 111Q273 139 260 165T239 211Q219 257 203 301Q165 275 140 241T115 155Q115 113 138 91T195 68ZM261 478Q261 451 267 421Q291 433 312 446T348 475T372 509T381 551Q381 580 369 591T336 603Q322 603 309 594T285 567T268 527T261 478Z"  />
<glyph unicode="&apos;" horiz-adv-x="211" d="M115 395Q118 451 122 497Q123 516 124 535T127 570T129 596T130 610Q131 639 149 658T195 677Q215 677 230 663T245 626Q245 618 243 611T239 599Q238 597 235 588T225 563T212 530T198 493Q181 449 160 395H115Z"  />
<glyph unicode="(" horiz-adv-x="257" d="M75 -199Q49 -145 36 -77T23 63Q23 237 88 395T269 685L327 640Q282 574 245 500T181 347T141 186T126 21Q126 2 128 -22T133 -71T140 -120T149 -166L75 -199Z"  />
<glyph unicode=")" horiz-adv-x="257" d="M181 685Q206 631 219 563T233 424Q233 249 167 91T-14 -199L-71 -154Q-26 -88 11 -14T75 139T115 300T130 465Q130 484 128 508T123 557T116 606T107 652L181 685Z"  />
<glyph unicode="*" horiz-adv-x="330" d="M167 379L198 494L89 445L74 493L184 533L97 594L133 636L214 567L233 677H288L256 562L364 611L380 563L270 523L358 462L320 420L240 489L221 379H167Z"  />
<glyph unicode="+" d="M270 305L230 127H159L199 305H43L57 370H213L251 541H322L284 370H440L426 305H270Z"  />
<glyph unicode="&#x2c;" horiz-adv-x="242" d="M150 55Q150 29 140 3T112 -48T71 -92T20 -126L-18 -86Q9 -73 35 -51T73 -2Q71 -3 68 -3T63 -3Q43 -3 28 11T12 52Q12 67 18 80T34 102T58 118T85 124Q111 124 130 107T150 55Z"  />
<glyph unicode="-" horiz-adv-x="269" d="M20 199L39 285H248L229 199H20Z"  />
<glyph unicode="." horiz-adv-x="242" d="M73 -11Q47 -11 30 7T12 51Q12 81 34 102T86 124Q112 124 129 106T147 62Q147 32 125 11T73 -11Z"  />
<glyph unicode="/" horiz-adv-x="266" d="M-60 -20L289 687H365L16 -20H-60Z"  />
<glyph unicode="0" horiz-adv-x="526" d="M230 -12Q145 -12 94 47T43 220Q43 299 64 380T123 527T215 635T335 677Q421 677 471 618T522 446Q522 367 501 286T442 138T350 30T230 -12ZM241 87Q267 87 290 105T332 154T366 224T391 305T406 386T412 458Q412 512 392 545T324 579Q297 579 275 561T233 512T199 442T174 361T159 280T153 208Q153 154 173 121T241 87Z"  />
<glyph unicode="1" horiz-adv-x="352" d="M124 0L239 523L114 416L64 484L285 667H381L234 0H124Z"  />
<glyph unicode="2" horiz-adv-x="507" d="M-6 0L18 108Q112 185 183 243T302 346T373 428T397 500Q397 537 370 558T299 579Q256 579 223 563T161 515L107 590Q145 630 197 653T308 677Q350 677 387 666T452 634T496 582T513 510Q513 462 491 417T425 323T320 220T177 98H425L404 0H-6Z"  />
<glyph unicode="3" horiz-adv-x="496" d="M221 -12Q183 -12 147 -3T81 23T27 66T-9 125L74 185Q94 136 134 112T220 87Q248 87 270 98T307 126T329 167T337 214Q337 251 311 271T235 292Q219 292 204 292T181 290L203 390Q206 390 215 390T235 389T256 389T274 389Q328 389 360 421T393 502Q393 538 365 558T287 579Q252 579 218 563T155 518L104 589Q139 627 189 652T300 677Q346 677 384 667T449 637T492 588T507 521Q507 486 494 455T458 400T406 360T345 339Q393 325 419 290T446 203Q446 159 429 120T382 52T310 6T221 -12Z"  />
<glyph unicode="4" horiz-adv-x="492" d="M236 0L269 155H1L24 257L345 667H493L401 252H471L450 155H380L346 0H236ZM357 551L124 252H290L357 551Z"  />
<glyph unicode="5" horiz-adv-x="512" d="M231 -12Q147 -12 94 23T12 120L97 181Q114 135 149 111T233 87Q260 87 283 100T323 134T349 184T359 243Q359 285 333 308T260 332Q228 332 203 320T152 285L78 316L156 667H530L509 570H245L203 378Q226 400 253 411T319 423Q352 423 380 412T430 380T463 327T475 256Q475 203 458 155T408 70T330 10T231 -12Z"  />
<glyph unicode="6" horiz-adv-x="511" d="M239 -12Q140 -12 90 48T39 212Q39 255 47 306T72 409T115 509T175 595T254 654T353 677Q413 677 458 652T529 582L456 508Q442 541 414 560T346 579Q311 579 283 560T234 511T197 442T171 367Q168 359 167 354T165 343Q177 359 193 373T229 399T271 417T316 424Q350 424 379 413T431 382T465 331T477 263Q477 213 460 164T411 75T336 12T239 -12ZM241 87Q269 87 291 102T329 141T353 193T362 247Q362 285 337 309T266 333Q231 333 203 312T151 258Q149 247 148 230T146 198Q146 147 170 117T241 87Z"  />
<glyph unicode="7" horiz-adv-x="448" d="M41 0L369 570H95L116 667H520L503 591L165 0H41Z"  />
<glyph unicode="8" horiz-adv-x="507" d="M229 -12Q183 -12 144 -3T77 25T32 75T15 147Q15 180 26 212T60 271T114 319T189 354Q171 363 155 376T127 407T108 445T100 489Q100 532 119 567T169 626T239 664T320 677Q358 677 394 668T460 641T506 593T524 523Q524 486 512 455T477 400T425 360T361 335Q403 312 430 273T457 186Q457 142 439 106T390 43T318 3T229 -12ZM285 384Q309 388 331 397T370 421T397 456T407 504Q407 537 381 557T314 578Q271 578 241 549T210 473Q210 457 217 443T235 418T259 398T285 384ZM231 87Q253 87 273 95T310 119T337 155T347 201Q347 221 339 237T319 266T293 287T266 300Q239 296 215 285T172 257T142 218T131 168Q131 126 159 107T231 87Z"  />
<glyph unicode="9" horiz-adv-x="511" d="M311 678Q410 678 460 618T511 455Q511 412 503 361T477 257T435 157T374 71T295 12T197 -11Q137 -11 92 14T21 84L94 158Q108 125 136 107T203 88Q238 88 266 107T315 156T353 224T379 299Q381 307 382 312T385 323Q373 307 357 293T321 267T279 249T234 242Q199 242 170 253T119 285T85 336T72 404Q72 454 89 503T138 591T214 654T311 678ZM309 580Q281 580 259 565T220 525T196 473T187 419Q187 381 212 357T283 333Q318 333 347 354T399 408Q401 419 402 436T404 468Q404 519 379 549T309 580Z"  />
<glyph unicode=":" horiz-adv-x="242" d="M74 -11Q48 -11 30 7T12 51Q12 81 34 102T86 124Q112 124 129 106T147 62Q147 32 125 11T74 -11ZM154 356Q128 356 111 374T93 418Q93 447 115 468T166 490Q192 490 210 472T228 429Q228 398 206 377T154 356Z"  />
<glyph unicode=";" horiz-adv-x="242" d="M150 55Q150 29 140 3T112 -48T71 -92T20 -126L-18 -86Q9 -73 35 -51T73 -2Q71 -3 68 -3T63 -3Q43 -3 28 11T12 52Q12 67 18 80T34 102T58 118T85 124Q111 124 130 107T150 55ZM154 356Q128 356 111 374T93 418Q93 447 115 468T166 490Q192 490 210 472T228 429Q228 398 206 377T154 356Z"  />
<glyph unicode="&lt;" d="M41 299L57 370L479 546L461 465L125 331L402 198L385 124L41 299Z"  />
<glyph unicode="=" d="M63 397L77 462H460L446 397H63ZM20 206L35 271H418L404 206H20Z"  />
<glyph unicode="&gt;" d="M2 124L20 205L357 337L80 472L96 546L440 370L424 299L2 124Z"  />
<glyph unicode="?" horiz-adv-x="389" d="M146 194Q138 208 135 225T131 260Q131 296 144 322T178 368T223 404T267 438T301 474T315 518Q315 545 296 563T238 582Q183 582 140 542L100 617Q138 649 178 663T261 678Q298 678 329 668T382 640T418 598T431 544Q431 503 416 474T378 421T329 380T279 343T241 306T226 261Q226 254 228 243T236 224L146 194ZM146 -11Q120 -11 103 7T85 51Q85 81 107 102T158 124Q184 124 202 106T220 62Q220 32 198 11T146 -11Z"  />
<glyph unicode="@" horiz-adv-x="702" d="M330 -70Q268 -70 218 -48T131 14T75 109T55 230Q55 311 85 385T165 515T283 605T424 639Q482 639 530 619T613 561T667 473T686 362Q686 299 671 248T631 161T575 105T513 85Q474 85 452 106T425 158L424 165Q401 132 369 109T294 85Q241 85 206 121T170 231Q170 282 186 330T231 415T298 476T379 499Q417 499 442 479T478 429L489 483H578L523 224Q522 220 522 212T521 199Q521 154 556 154Q568 154 584 166T614 205T637 269T647 361Q647 416 631 461T585 537T514 585T421 602Q354 602 295 571T190 488T119 369T93 231Q93 174 110 125T158 41T234 -15T334 -35Q382 -35 421 -20T498 21L517 -7Q474 -37 428 -53T330 -70ZM330 157Q349 157 364 163T393 180T416 204T435 230L464 367Q461 377 456 387T442 407T422 421T395 427Q365 427 341 410T299 365T273 305T263 241Q263 203 280 180T330 157Z"  />
<glyph unicode="A" horiz-adv-x="536" d="M364 0L357 132H137L73 0H-52L294 667H427L479 0H364ZM339 549L182 230H355L339 549Z"  />
<glyph unicode="B" horiz-adv-x="540" d="M10 0L157 667H382Q420 667 450 656T501 624T533 577T544 519Q544 486 533 455T503 398T458 356T401 335Q422 329 438 316T464 286T480 248T486 207Q486 170 474 133T437 67T372 19T279 0H10ZM328 389Q354 389 372 399T403 426T420 461T426 499Q426 532 405 551T351 570H246L206 389H328ZM267 98Q292 98 312 107T345 133T366 171T374 216Q374 252 354 271T296 291H185L142 98H267Z"  />
<glyph unicode="C" horiz-adv-x="547" d="M281 -12Q228 -12 185 5T110 54T61 133T43 237Q43 318 66 397T132 538T235 639T370 678Q418 678 454 664T517 626T561 570T587 503L482 474Q468 525 438 552T363 580Q319 580 282 549T216 468T173 358T157 239Q157 167 191 127T287 87Q322 87 354 107T414 166L500 117Q456 51 400 20T281 -12Z"  />
<glyph unicode="D" horiz-adv-x="583" d="M10 0L157 667H352Q394 667 434 651T504 603T553 525T572 419Q572 375 564 328T538 233T492 144T423 70T330 19T209 0H10ZM228 98Q285 98 328 128T400 204T443 307T458 415Q458 488 422 529T331 570H246L142 98H228Z"  />
<glyph unicode="E" horiz-adv-x="472" d="M10 0L157 667H522L501 570H246L206 389H454L432 291H185L142 98H396L375 0H10Z"  />
<glyph unicode="F" horiz-adv-x="464" d="M10 0L157 667H522L501 570H246L206 389H454L432 291H185L121 0H10Z"  />
<glyph unicode="G" horiz-adv-x="576" d="M281 -12Q228 -12 184 5T109 54T60 133T43 237Q43 318 66 397T132 538T236 639T375 678Q420 678 454 665T514 630T555 578T581 518L483 484Q472 526 441 553T363 580Q319 580 282 550T217 470T173 360T157 239Q157 167 191 127T287 87Q323 87 350 102T399 141L425 258H285L307 356H552L495 99Q453 45 399 17T281 -12Z"  />
<glyph unicode="H" horiz-adv-x="593" d="M365 0L430 294H185L121 0H10L157 667H268L207 392H451L512 667H623L476 0H365Z"  />
<glyph unicode="I" horiz-adv-x="239" d="M10 0L157 667H268L121 0H10Z"  />
<glyph unicode="J" horiz-adv-x="409" d="M122 -12Q76 -12 35 3T-32 51L24 135Q38 112 62 100T114 87Q159 87 185 113T222 187L328 667H439L332 184Q309 82 259 35T122 -12Z"  />
<glyph unicode="K" horiz-adv-x="535" d="M350 0L234 279L164 199L121 0H10L157 667H268L200 358L468 667H605L318 352L474 0H350Z"  />
<glyph unicode="L" horiz-adv-x="434" d="M10 0L157 667H268L142 98H373L352 0H10Z"  />
<glyph unicode="M" horiz-adv-x="713" d="M486 0L591 480L324 0H281L227 480L121 0H10L157 667H304L352 241L590 667H743L596 0H486Z"  />
<glyph unicode="N" horiz-adv-x="592" d="M368 0L220 452L121 0H10L157 667H269L413 229L510 667H621L474 0H368Z"  />
<glyph unicode="O" horiz-adv-x="612" d="M281 -12Q227 -12 183 6T108 57T60 135T43 237Q43 314 65 392T130 534T232 638T370 678Q424 678 468 660T543 609T591 530T608 429Q608 352 586 274T521 132T418 28T281 -12ZM287 87Q332 87 369 118T434 197T477 306T493 426Q493 498 457 539T363 580Q318 580 280 549T215 469T173 359T157 239Q157 167 192 127T287 87Z"  />
<glyph unicode="P" horiz-adv-x="513" d="M10 0L157 667H365Q405 667 437 654T492 618T526 564T538 496Q538 454 524 411T481 333T404 275T291 252H176L121 0H10ZM299 350Q329 350 351 361T390 392T414 435T422 486Q422 524 401 547T344 570H246L197 350H299Z"  />
<glyph unicode="Q" horiz-adv-x="612" d="M281 -12Q227 -12 183 6T108 57T60 135T43 237Q43 314 65 392T130 534T232 638T370 678Q424 678 468 660T543 609T591 530T608 429Q608 375 597 319T565 212T512 118T440 43L460 -6L373 -36L358 0Q322 -12 281 -12ZM287 87Q303 87 321 92L273 211L359 241L398 145Q420 170 437 202T467 272T486 348T493 426Q493 498 457 539T363 580Q318 580 280 549T215 469T173 359T157 239Q157 167 192 127T287 87Z"  />
<glyph unicode="R" horiz-adv-x="533" d="M321 0L264 252H176L121 0H10L157 667H365Q401 667 432 655T487 620T525 566T539 496Q539 452 526 413T490 344T437 293T371 265L440 0H321ZM301 350Q330 350 352 361T390 391T414 434T422 486Q422 526 399 548T343 570H246L197 350H301Z"  />
<glyph unicode="S" horiz-adv-x="486" d="M217 -12Q181 -12 148 -5T85 16T32 47T-7 86L62 167Q87 131 130 109T222 87Q272 87 299 117T327 189Q327 214 310 233T266 270T209 306T152 346T108 399T90 471Q90 513 106 550T152 616T223 661T312 678Q371 678 424 656T510 594L444 514Q418 546 380 563T303 580Q282 580 265 573T234 553T214 524T207 490Q207 466 224 448T268 413T325 377T382 335T426 281T444 208Q444 164 428 124T383 54T311 6T217 -12Z"  />
<glyph unicode="T" horiz-adv-x="462" d="M122 0L247 570H95L116 667H532L510 570H358L232 0H122Z"  />
<glyph unicode="U" horiz-adv-x="592" d="M272 -12Q171 -12 113 40T55 180Q55 191 56 204T60 226L157 667H268L170 223Q169 218 168 208T167 188Q167 143 195 115T276 86Q333 86 365 121T412 223L510 667H621L523 224Q498 111 439 50T272 -12Z"  />
<glyph unicode="V" horiz-adv-x="536" d="M147 0L95 667H211L238 131L502 667H626L280 0H147Z"  />
<glyph unicode="W" horiz-adv-x="745" d="M414 0L425 479L223 0H107L103 667H220L205 169L419 667H508L501 169L707 667H828L530 0H414Z"  />
<glyph unicode="X" horiz-adv-x="535" d="M358 0L271 249L82 0H-52L223 347L107 667H228L305 432L480 667H614L354 335L479 0H358Z"  />
<glyph unicode="Y" horiz-adv-x="521" d="M152 0L213 278L92 667H209L285 382L487 667H615L323 278L262 0H152Z"  />
<glyph unicode="Z" horiz-adv-x="475" d="M-17 0L4 92L361 570H110L131 667H523L504 577L144 98H405L383 0H-17Z"  />
<glyph unicode="[" horiz-adv-x="230" d="M-57 -190L136 678H308L293 609H194L32 -121H131L115 -190H-57Z"  />
<glyph unicode="\" horiz-adv-x="266" d="M94 687H167L207 -20H134L94 687Z"  />
<glyph unicode="]" horiz-adv-x="230" d="M-79 -190L-64 -121H35L197 609H98L113 678H286L93 -190H-79Z"  />
<glyph unicode="^" horiz-adv-x="386" d="M314 333L272 592L117 333H38L249 667H323L386 333H314Z"  />
<glyph unicode="_" horiz-adv-x="422" d="M-81 -109L-65 -40H362L346 -109H-81Z"  />
<glyph unicode="`" horiz-adv-x="202" d="M203 556L101 700H194L271 556H203Z"  />
<glyph unicode="a" horiz-adv-x="494" d="M248 495Q290 495 323 475T374 416L389 483H488L381 0H281L295 62Q242 -12 169 -12Q103 -12 64 32T25 162Q25 213 39 271T82 379T152 462T248 495ZM266 407Q234 407 209 384T166 326T139 251T129 178Q129 129 152 103T214 76Q243 76 269 96T313 144L357 340Q347 369 323 388T266 407Z"  />
<glyph unicode="b" horiz-adv-x="494" d="M245 -12Q203 -12 170 8T119 67L105 0H6L152 667H252L197 421Q250 495 324 495Q390 495 429 451T468 321Q468 270 454 212T411 104T341 21T245 -12ZM228 76Q260 76 285 99T327 157T354 232T364 305Q364 354 341 380T279 407Q250 407 223 387T179 339L136 143Q146 114 170 95T228 76Z"  />
<glyph unicode="c" horiz-adv-x="415" d="M217 -12Q131 -12 79 39T27 184Q27 240 45 295T95 395T174 467T276 495Q330 495 368 476T428 424L365 359Q351 383 329 395T280 407Q245 407 217 387T170 335T140 265T129 190Q129 132 158 104T232 76Q258 76 279 87T317 117L356 45Q330 20 296 4T217 -12Z"  />
<glyph unicode="d" horiz-adv-x="494" d="M248 495Q290 495 323 475T374 416L429 667H529L381 0H281L295 62Q242 -12 169 -12Q103 -12 64 32T25 162Q25 213 39 271T82 379T152 462T248 495ZM266 407Q234 407 209 384T166 326T139 251T129 178Q129 129 152 103T214 76Q243 76 269 96T313 144L357 340Q347 369 323 388T266 407Z"  />
<glyph unicode="e" horiz-adv-x="474" d="M226 -12Q133 -12 80 39T27 184Q27 234 43 289T91 389T169 465T273 495Q354 495 401 446T448 309Q448 283 444 255T434 209H127Q125 201 124 192T123 174Q123 155 129 137T150 103T186 79T238 70Q266 70 294 81T345 113L379 48Q348 19 308 4T226 -12ZM354 280Q356 288 357 298T358 317Q358 357 335 385T265 414Q239 414 218 402T181 371T154 327T139 280H354Z"  />
<glyph unicode="f" horiz-adv-x="274" d="M26 0L113 397H50L70 483H132L142 528Q149 559 161 586T191 633T236 665T296 677Q328 677 354 668T398 640L350 573Q333 593 305 593Q278 593 264 577T241 528L232 483H313L293 397H213L125 0H26Z"  />
<glyph unicode="g" horiz-adv-x="493" d="M162 -196Q104 -196 56 -180T-25 -125L33 -54Q52 -82 86 -97T160 -112Q203 -112 235 -85T283 11L298 75Q273 39 240 20T169 1Q139 1 113 11T67 42T37 95T26 171Q26 221 40 278T81 383T150 463T247 495Q265 495 284 490T320 474T351 450T373 416L388 483H487L384 17Q370 -45 347 -86T295 -151T232 -186T162 -196ZM215 89Q244 89 271 108T315 155L356 339Q345 368 319 387T261 407Q230 407 206 386T164 331T138 260T129 189Q129 139 152 114T215 89Z"  />
<glyph unicode="h" horiz-adv-x="485" d="M273 0L345 329Q347 334 348 342T349 355Q349 383 332 395T287 407Q256 407 228 386T179 338L105 0H5L152 667H252L197 419Q223 448 259 471T340 495Q394 495 425 468T456 395Q456 389 455 379T451 360L372 0H273Z"  />
<glyph unicode="i" horiz-adv-x="218" d="M181 544Q157 544 141 559T125 598Q125 615 131 628T148 650T171 664T195 669Q220 669 236 653T252 615Q252 598 246 585T229 563T206 549T181 544ZM5 0L112 483H212L105 0H5Z"  />
<glyph unicode="j" horiz-adv-x="218" d="M-58 -196Q-125 -196 -156 -161L-113 -89Q-97 -112 -68 -112Q-45 -112 -29 -96T-5 -41L112 483H212L95 -41Q78 -117 44 -156T-58 -196ZM181 544Q157 544 141 559T125 598Q125 615 131 628T148 650T171 664T195 669Q220 669 236 653T252 615Q252 598 246 585T229 563T206 549T181 544Z"  />
<glyph unicode="k" horiz-adv-x="456" d="M280 0L209 205L131 124L105 0H5L152 667H252L160 252L378 483H498L290 266L394 0H280Z"  />
<glyph unicode="l" horiz-adv-x="218" d="M5 0L152 667H252L105 0H5Z"  />
<glyph unicode="m" horiz-adv-x="722" d="M509 0L582 332Q583 335 584 342T586 358Q586 381 571 394T532 407Q503 407 476 386T431 339L357 0H257L331 332Q332 338 333 345T334 361Q334 381 320 394T279 407Q250 407 224 386T179 339L105 0H5L112 483H212L197 419Q207 432 221 446T253 470T290 488T332 495Q359 495 378 487T411 468T431 443T438 418Q438 415 437 412Q463 447 501 471T584 495Q630 495 661 470T693 396Q693 387 692 377T688 360L609 0H509Z"  />
<glyph unicode="n" horiz-adv-x="485" d="M272 0L345 329Q347 334 348 342T349 355Q349 383 333 395T292 407Q257 407 228 386T179 339L105 0H5L112 483H212L197 419Q223 448 259 471T340 495Q394 495 425 469T456 395Q456 390 455 378T451 360L372 0H272Z"  />
<glyph unicode="o" horiz-adv-x="488" d="M214 -12Q124 -12 75 40T26 181Q26 235 43 291T92 392T169 466T272 495Q363 495 411 443T460 302Q460 248 443 192T394 91T317 17T214 -12ZM218 76Q250 76 276 99T320 155T348 228T358 301Q358 355 334 381T268 407Q236 407 210 384T166 328T138 255T128 182Q128 128 152 102T218 76Z"  />
<glyph unicode="p" horiz-adv-x="492" d="M245 -12Q203 -12 170 8T119 67L64 -184H-36L112 483H212L197 421Q250 495 324 495Q390 495 429 451T468 321Q468 270 454 212T411 104T341 21T245 -12ZM228 76Q260 76 285 99T327 157T354 232T364 305Q364 354 341 380T279 407Q250 407 223 387T179 339L136 143Q146 114 170 95T228 76Z"  />
<glyph unicode="q" horiz-adv-x="492" d="M248 495Q290 495 323 475T374 416L388 483H488L340 -184H240L295 62Q242 -12 169 -12Q103 -12 64 32T25 162Q25 213 39 271T82 379T152 462T248 495ZM266 407Q234 407 209 384T166 326T139 251T129 178Q129 129 152 103T214 76Q243 76 269 96T313 144L357 340Q347 369 323 388T266 407Z"  />
<glyph unicode="r" horiz-adv-x="308" d="M5 0L112 483H212L197 417Q224 453 260 473T348 494L325 395Q320 397 311 398T291 399Q258 399 228 379T177 330L105 0H5Z"  />
<glyph unicode="s" horiz-adv-x="401" d="M169 -12Q111 -12 63 9T-13 66L45 133Q62 107 97 87T174 67Q209 67 230 87T252 134Q252 153 238 166T202 192T155 216T109 246T73 285T58 340Q58 370 69 398T102 447T156 482T231 495Q281 495 325 476T395 424L342 360Q335 371 323 381T296 399T264 411T229 416Q194 416 175 400T155 357Q155 340 169 328T206 303T253 278T301 248T337 208T352 152Q352 119 340 89T303 37T245 1T169 -12Z"  />
<glyph unicode="t" horiz-adv-x="283" d="M158 -12Q104 -12 74 10T44 77Q44 84 45 93T48 112L111 397H48L67 483H131L160 615H259L230 483H311L291 397H211L152 133Q151 128 150 122T149 111Q149 76 187 76Q197 76 206 79T221 87L227 8Q215 -1 198 -6T158 -12Z"  />
<glyph unicode="u" horiz-adv-x="485" d="M212 483L139 155Q137 148 136 141T135 128Q135 101 152 89T197 76Q228 76 256 97T304 144L379 483H479L372 0H272L287 64Q261 35 225 12T144 -12Q90 -12 59 14T28 88Q28 94 29 105T33 123L112 483H212Z"  />
<glyph unicode="v" horiz-adv-x="430" d="M107 0L55 483H158L184 119L373 483H482L215 0H107Z"  />
<glyph unicode="w" horiz-adv-x="667" d="M373 0L357 355L186 0H82L60 483H160L166 131L336 483H428L444 131L606 483H713L477 0H373Z"  />
<glyph unicode="x" horiz-adv-x="424" d="M258 0L200 176L64 0H-48L150 246L67 483H172L224 317L351 483H463L273 246L364 0H258Z"  />
<glyph unicode="y" horiz-adv-x="430" d="M-19 -100Q-14 -104 -4 -105T17 -107Q34 -107 46 -98T71 -68L106 -7L55 483H158L184 120L373 483H482L164 -91Q130 -150 96 -173T15 -196Q-4 -196 -22 -193T-52 -185L-19 -100Z"  />
<glyph unicode="z" horiz-adv-x="399" d="M-16 0L0 76L261 396H72L91 483H409L393 410L131 87H325L306 0H-16Z"  />
<glyph unicode="{" horiz-adv-x="244" d="M96 -190Q75 -190 55 -183T20 -162T-5 -129T-15 -87Q-15 -80 -14 -72T-11 -59L35 146Q36 151 36 155T37 164Q37 186 27 200T-3 214L11 274Q40 274 56 293T78 342L124 547Q139 614 179 646T278 678H323L308 609H263Q212 609 198 547L148 325Q141 293 127 270T83 236Q112 221 112 181Q112 173 111 165T108 147L64 -57Q63 -62 62 -66T61 -76Q61 -97 74 -109T104 -122H146L130 -190H96Z"  />
<glyph unicode="|" horiz-adv-x="197" d="M84 -20V687H153V-20H84Z"  />
<glyph unicode="}" horiz-adv-x="244" d="M147 678Q168 678 188 671T223 650T248 617T258 574Q258 568 257 560T254 546L209 342Q207 332 207 323Q207 302 217 288T246 274L232 214Q203 214 188 195T165 146L120 -59Q105 -126 65 -158T-35 -190H-80L-65 -121H-20Q32 -121 46 -60L95 163Q103 196 117 219T160 252Q131 267 131 307Q131 315 132 323T135 341L180 545Q181 550 181 554T182 563Q182 584 170 597T139 610H97L113 678H147Z"  />
<glyph unicode="~" horiz-adv-x="457" d="M522 660Q513 619 500 576T466 498T417 441T350 418Q318 418 301 431T276 465T265 510T261 554T252 588T230 602Q204 602 180 554T135 417L66 425Q75 466 88 509T122 587T171 644T238 666Q270 666 287 653T313 619T323 574T327 530T336 496T358 482Q384 482 409 530T453 667L522 660Z"  />
<glyph unicode="&#xA0;" horiz-adv-x="212" />
<glyph unicode="&#xA1;" horiz-adv-x="242" d="M172 282L87 -184H-35L87 282H172ZM168 494Q194 494 211 476T229 432Q229 403 207 382T155 360Q129 360 112 378T94 421Q94 452 116 473T168 494Z"  />
<glyph unicode="&#xA2;" horiz-adv-x="415" d="M154 -4Q95 13 61 61T27 184Q27 239 44 293T92 391T167 463T265 494L281 565H356L338 487Q368 478 391 462T428 424L365 359Q348 388 319 400L246 77Q268 80 285 90T317 117L356 45Q332 22 301 6T227 -12L208 -100H133L154 -4ZM129 190Q129 153 141 129T175 90L244 401Q217 391 196 369T160 317T137 255T129 190Z"  />
<glyph unicode="&#xA3;" horiz-adv-x="471" d="M46 338H122Q111 362 102 388T93 449Q93 497 112 538T162 610T235 659T322 677Q356 677 387 669T443 644T485 603T507 547L409 511Q404 546 382 566T325 586Q302 586 282 575T246 544T221 497T212 437Q212 407 222 384T240 338H348L333 271H248Q245 245 236 220T213 174T183 137T150 110Q162 115 171 116T190 118Q210 118 226 113T256 102T285 91T317 86Q342 86 360 96T393 121L413 33Q393 13 366 0T303 -13Q273 -13 250 -6T206 9T166 24T123 31Q82 31 26 -7L6 71Q34 85 59 105T102 149T132 201T143 255Q143 259 143 263T142 271H31L46 338Z"  />
<glyph unicode="&#xA4;" horiz-adv-x="516" d="M228 97Q172 103 133 131L44 59L-9 126L81 198Q52 267 72 355Q89 434 135 489L80 561L148 616L203 544Q231 558 263 565T331 568Q360 565 383 556T425 533L515 606L568 541L477 467Q492 433 494 393T488 311Q479 273 463 239T422 176L478 106L410 51L355 121Q299 90 228 97ZM247 185Q275 182 298 192T339 221T370 266T390 321Q396 350 395 377T385 426T358 462T312 480Q284 483 261 474T219 445T189 400T170 345Q163 316 164 289T174 239T201 203T247 185Z"  />
<glyph unicode="&#xA5;" horiz-adv-x="521" d="M154 0L180 119H-6L9 184H194L215 278H31L45 343H195L94 667H211L287 382L489 667H617L374 343H519L505 278H325L304 184H484L469 119H290L264 0H154Z"  />
<glyph unicode="&#xA6;" horiz-adv-x="197" d="M84 -20V296H153V-20H84ZM84 371V687H153V371H84Z"  />
<glyph unicode="&#xA7;" horiz-adv-x="404" d="M389 330Q389 281 361 242T279 183Q308 164 321 138T334 83Q334 50 321 20T285 -32T229 -68T156 -81Q94 -81 45 -63T-35 -8L23 54Q43 26 77 9T152 -9Q189 -9 212 14T236 69Q236 90 222 104T187 131T141 156T95 184T59 223T45 280Q45 329 76 366T167 418Q136 436 118 463T99 526Q99 558 112 585T147 633T201 665T269 677Q331 677 373 659T442 609L388 554Q368 581 337 593T274 606Q238 606 217 586T196 538Q196 517 210 503T246 477T292 452T339 424T374 385T389 330ZM291 307Q291 336 274 353T235 382Q183 374 162 350T141 298Q141 272 160 253T215 218Q256 231 273 254T291 307Z"  />
<glyph unicode="&#xA8;" horiz-adv-x="279" d="M367 613Q367 589 348 570T303 551Q282 551 268 565T253 601Q253 626 272 644T317 663Q338 663 352 649T367 613ZM186 613Q186 589 167 570T122 551Q101 551 87 565T72 601Q72 626 91 644T136 663Q157 663 171 649T186 613Z"  />
<glyph unicode="&#xA9;" horiz-adv-x="778" d="M754 334Q754 263 727 200T653 90T543 16T408 -11Q337 -11 274 16T165 90T91 200T64 334Q64 406 91 468T164 578T274 652T408 679Q480 679 543 652T653 578T727 469T754 334ZM721 334Q721 398 696 455T629 554T529 621T408 646Q344 646 288 622T189 555T123 455T98 334Q98 270 122 214T189 115T287 48T408 23Q472 23 529 47T628 114T696 213T721 334ZM528 175Q501 152 466 137T391 122Q347 122 312 136T251 175T213 234T200 307Q200 358 219 402T272 478T347 529T434 547Q485 547 526 528T592 467L558 442Q540 476 508 493T433 511Q398 511 364 496T302 454T258 390T241 308Q241 278 251 251T281 203T329 170T392 158Q424 158 454 172T506 206L528 175Z"  />
<glyph unicode="&#xAA;" horiz-adv-x="358" d="M245 589Q225 589 208 576T179 542T160 496T153 446Q153 412 168 395T209 377Q229 377 246 390T276 420L304 551Q297 568 281 578T245 589ZM398 640L328 326H254L263 368Q243 342 222 330T177 318Q136 318 106 347T76 439Q76 476 87 513T118 581T165 629T227 648Q255 648 278 636T315 599L324 640H398Z"  />
<glyph unicode="&#xAB;" horiz-adv-x="424" d="M114 63L29 243L194 420H284L116 239L198 63H114ZM266 63L181 243L346 420H436L268 239L350 63H266Z"  />
<glyph unicode="&#xAC;" horiz-adv-x="446" d="M404 206H337L379 397H63L77 462H460L404 206Z"  />
<glyph unicode="&#xAD;" horiz-adv-x="269" d="M20 199L39 285H248L229 199H20Z"  />
<glyph unicode="&#xAE;" horiz-adv-x="494" d="M508 465Q508 421 492 383T446 315T378 270T295 253Q251 253 213 269T146 315T101 382T84 465Q84 509 100 548T146 615T213 660T296 677Q340 677 379 661T446 616T491 548T508 465ZM478 465Q478 503 464 536T425 594T367 633T295 647Q257 647 224 633T167 595T128 537T114 465Q114 427 128 394T166 337T224 298T295 283Q333 283 366 297T424 336T463 394T478 465ZM329 343L287 439H242L221 343H188L241 586H333Q363 586 383 569T404 522Q404 504 397 489T379 463T353 446T324 440L368 343H329ZM369 519Q369 537 358 547T327 557H268L248 469H315Q338 469 353 483T369 519Z"  />
<glyph unicode="&#xAF;" horiz-adv-x="309" d="M72 567L85 627H392L379 567H72Z"  />
<glyph unicode="&#xB0;" horiz-adv-x="300" d="M345 549Q345 522 335 499T308 459T267 431T217 421Q190 421 167 431T127 458T99 499T89 549Q89 575 99 598T126 639T167 667T217 677Q244 677 267 667T307 640T335 599T345 549ZM288 549Q288 578 267 598T217 619Q188 619 168 599T148 549Q148 520 167 500T216 479Q245 479 266 499T288 549Z"  />
<glyph unicode="&#xB1;" d="M272 316L232 137H161L201 316H45L59 380H215L253 552H324L286 380H442L428 316H272ZM-22 17L-8 82H376L362 17H-22Z"  />
<glyph unicode="&#xB2;" horiz-adv-x="337" d="M77 421L91 482Q158 531 204 566T278 627T318 674T331 715Q331 740 314 752T270 765Q242 765 218 753T176 719L140 770Q166 797 201 812T274 827Q301 827 325 821T368 801T398 768T409 722Q409 693 395 667T353 612T286 553T196 483H359L346 421H77Z"  />
<glyph unicode="&#xB3;" horiz-adv-x="337" d="M373 538Q373 516 364 494T336 454T292 425T232 414Q181 414 142 433T84 486L138 530Q152 504 175 490T228 476Q263 476 280 499T297 548Q297 571 278 583T227 595Q219 595 211 595T197 594L211 656Q217 655 233 655T258 655Q291 655 310 672T330 718Q330 741 311 753T264 765Q215 765 175 725L142 771Q167 797 201 812T271 827Q331 827 369 802T408 728Q408 709 401 691T382 659T350 634T307 621Q336 613 354 592T373 538Z"  />
<glyph unicode="&#xB4;" horiz-adv-x="202" d="M137 556H67L209 700H303L137 556Z"  />
<glyph unicode="&#xB5;" horiz-adv-x="496" d="M63 -184H-37L112 483H212L138 153Q129 114 145 95T191 75Q223 75 253 95T303 142L378 483H478L398 123Q393 101 399 89T423 76Q430 76 440 78L429 -6Q420 -9 407 -10T380 -12Q332 -12 313 9T295 74Q270 36 236 12T165 -12Q123 -12 107 16L63 -184Z"  />
<glyph unicode="&#xB6;" horiz-adv-x="449" d="M259 -100L418 614H334L175 -100H122L216 323Q188 323 163 334T120 367T90 416T79 479Q79 514 93 548T134 608T195 651T273 667H483L313 -100H259Z"  />
<glyph unicode="&#xB7;" horiz-adv-x="242" d="M115 178Q89 178 72 195T54 239Q54 269 75 290T127 312Q153 312 170 294T188 250Q188 220 167 199T115 178Z"  />
<glyph unicode="&#xB8;" horiz-adv-x="195" d="M12 -194Q-21 -194 -46 -183T-89 -155L-60 -114Q-30 -147 13 -147Q36 -147 49 -135T63 -105Q63 -80 35 -80Q18 -80 6 -94L-28 -72L22 11H75L34 -54Q46 -43 62 -43Q86 -43 101 -59T117 -102Q117 -143 87 -168T12 -194Z"  />
<glyph unicode="&#xB9;" horiz-adv-x="248" d="M156 421L221 718L148 657L112 704L255 821H321L233 421H156Z"  />
<glyph unicode="&#xBA;" horiz-adv-x="353" d="M208 318Q145 318 111 354T77 449Q77 485 89 520T123 584T177 630T246 648Q309 648 343 612T377 517Q377 482 365 447T331 383T277 336T208 318ZM211 378Q233 378 250 393T279 429T296 475T302 519Q302 551 287 569T243 587Q220 587 203 572T175 536T158 490T152 446Q152 414 167 396T211 378Z"  />
<glyph unicode="&#xBB;" horiz-adv-x="424" d="M159 420L244 240L79 63H-11L158 245L75 420H159ZM311 420L396 240L231 63H141L310 245L227 420H311Z"  />
<glyph unicode="&#xBC;" horiz-adv-x="712" d="M122 267L187 564L114 503L78 550L221 667H287L199 267H122ZM611 94L591 0H515L535 94H364L377 151L579 400H679L625 155H669L656 94H611ZM585 321L450 155H548L585 321ZM138 0H81L580 667H637L138 0Z"  />
<glyph unicode="&#xBD;" horiz-adv-x="746" d="M122 267L187 564L114 503L78 550L221 667H287L199 267H122ZM393 0L407 61Q474 110 520 145T594 206T634 253T647 294Q647 319 630 331T586 344Q558 344 534 332T492 298L456 349Q482 376 517 391T590 406Q617 406 641 400T684 380T714 347T725 301Q725 272 711 246T669 191T602 132T512 62H675L662 0H393ZM138 0H81L580 667H637L138 0Z"  />
<glyph unicode="&#xBE;" horiz-adv-x="778" d="M678 94L658 0H582L602 94H431L444 151L646 400H746L692 155H736L723 94H678ZM652 321L517 155H615L652 321ZM204 0H147L646 667H703L204 0ZM339 384Q339 362 330 340T302 300T258 271T198 260Q147 260 108 279T50 332L104 376Q118 350 141 336T194 322Q229 322 246 345T263 394Q263 417 244 429T193 441Q185 441 177 441T163 440L177 502Q183 501 199 501T224 501Q257 501 276 518T296 564Q296 587 277 599T230 611Q181 611 141 571L108 617Q133 643 167 658T237 673Q297 673 335 648T374 574Q374 555 367 537T348 505T316 480T273 467Q302 459 320 438T339 384Z"  />
<glyph unicode="&#xBF;" horiz-adv-x="338" d="M242 288Q250 274 253 257T257 223Q257 187 244 161T210 115T165 79T121 45T87 9T73 -36Q73 -63 92 -81T150 -99Q204 -99 248 -60L288 -135Q250 -167 210 -181T127 -195Q90 -195 59 -185T5 -158T-31 -116T-44 -61Q-44 -20 -29 9T9 62T59 103T108 139T146 176T162 222Q162 229 160 240T152 259L242 288ZM242 493Q268 493 285 476T303 432Q303 402 281 381T229 359Q203 359 186 377T168 421Q168 451 190 472T242 493Z"  />
<glyph unicode="&#xC0;" horiz-adv-x="536" d="M364 0L357 132H137L73 0H-52L294 667H427L479 0H364ZM339 549L182 230H355L339 549ZM356 723L254 867H347L424 723H356Z"  />
<glyph unicode="&#xC1;" horiz-adv-x="536" d="M364 0L357 132H137L73 0H-52L294 667H427L479 0H364ZM339 549L182 230H355L339 549ZM390 723H320L462 867H556L390 723Z"  />
<glyph unicode="&#xC2;" horiz-adv-x="536" d="M441 723L395 820L310 723H248L359 867H450L499 723H441ZM364 0L357 132H137L73 0H-52L294 667H427L479 0H364ZM339 549L182 230H355L339 549Z"  />
<glyph unicode="&#xC3;" horiz-adv-x="536" d="M364 0L357 132H137L73 0H-52L294 667H427L479 0H364ZM339 549L182 230H355L339 549ZM434 721Q409 721 396 733T375 761T358 789T334 802Q320 802 308 784T288 727H233Q246 787 271 824T342 861Q367 861 380 849T401 821T418 794T442 781Q456 781 467 798T488 855H543Q530 795 505 758T434 721Z"  />
<glyph unicode="&#xC4;" horiz-adv-x="536" d="M532 780Q532 756 513 737T468 718Q447 718 433 732T418 768Q418 793 437 811T482 830Q503 830 517 816T532 780ZM351 780Q351 756 332 737T287 718Q266 718 252 732T237 768Q237 793 256 811T301 830Q322 830 336 816T351 780ZM364 0L357 132H137L73 0H-52L294 667H427L479 0H364ZM339 549L182 230H355L339 549Z"  />
<glyph unicode="&#xC5;" horiz-adv-x="536" d="M364 0L357 132H137L73 0H-52L294 667H427L479 0H364ZM339 549L182 230H355L339 549ZM378 691Q340 691 317 715T293 777Q293 798 301 817T324 850T357 872T397 881Q435 881 458 857T482 795Q482 774 474 755T451 722T418 700T378 691ZM382 739Q403 739 419 754T435 791Q435 810 424 822T393 834Q372 834 356 819T340 782Q340 763 351 751T382 739Z"  />
<glyph unicode="&#xC6;" horiz-adv-x="772" d="M311 0L340 132H161L73 0H-51L412 667H823L802 570H548L508 389H755L733 291H486L443 98H697L676 0H311ZM430 540L223 230H362L430 540Z"  />
<glyph unicode="&#xC7;" horiz-adv-x="547" d="M223 -194Q190 -194 165 -183T122 -155L151 -114Q181 -147 224 -147Q247 -147 260 -135T274 -105Q274 -80 246 -80Q229 -80 217 -94L183 -72L222 -6Q141 11 92 74T43 237Q43 318 66 397T132 538T235 639T370 678Q418 678 454 664T517 626T561 570T587 503L482 474Q468 525 438 552T363 580Q319 580 282 549T216 468T173 358T157 239Q157 167 191 127T287 87Q322 87 354 107T414 166L500 117Q456 51 400 20T281 -12H271L245 -54Q257 -43 273 -43Q297 -43 312 -59T328 -102Q328 -143 298 -168T223 -194Z"  />
<glyph unicode="&#xC8;" horiz-adv-x="472" d="M10 0L157 667H522L501 570H246L206 389H454L432 291H185L142 98H396L375 0H10ZM336 723L234 867H327L404 723H336Z"  />
<glyph unicode="&#xC9;" horiz-adv-x="472" d="M369 723H299L441 867H535L369 723ZM10 0L157 667H522L501 570H246L206 389H454L432 291H185L142 98H396L375 0H10Z"  />
<glyph unicode="&#xCA;" horiz-adv-x="472" d="M420 723L374 820L289 723H227L338 867H429L478 723H420ZM10 0L157 667H522L501 570H246L206 389H454L432 291H185L142 98H396L375 0H10Z"  />
<glyph unicode="&#xCB;" horiz-adv-x="472" d="M511 780Q511 756 492 737T447 718Q426 718 412 732T397 768Q397 793 416 811T461 830Q482 830 496 816T511 780ZM330 780Q330 756 311 737T266 718Q245 718 231 732T216 768Q216 793 235 811T280 830Q301 830 315 816T330 780ZM10 0L157 667H522L501 570H246L206 389H454L432 291H185L142 98H396L375 0H10Z"  />
<glyph unicode="&#xCC;" horiz-adv-x="239" d="M10 0L157 667H268L121 0H10ZM207 723L105 867H198L275 723H207Z"  />
<glyph unicode="&#xCD;" horiz-adv-x="239" d="M10 0L157 667H268L121 0H10ZM242 723H172L314 867H408L242 723Z"  />
<glyph unicode="&#xCE;" horiz-adv-x="239" d="M293 723L247 820L162 723H100L211 867H302L351 723H293ZM10 0L157 667H268L121 0H10Z"  />
<glyph unicode="&#xCF;" horiz-adv-x="239" d="M384 780Q384 756 365 737T320 718Q299 718 285 732T270 768Q270 793 289 811T334 830Q355 830 369 816T384 780ZM203 780Q203 756 184 737T139 718Q118 718 104 732T89 768Q89 793 108 811T153 830Q174 830 188 816T203 780ZM10 0L157 667H268L121 0H10Z"  />
<glyph unicode="&#xD0;" horiz-adv-x="606" d="M34 0L97 289H23L43 379H117L181 667H376Q418 667 458 651T528 603T577 525T596 419Q596 375 588 328T562 233T516 144T447 70T354 19T233 0H34ZM208 289L166 98H252Q309 98 352 128T424 204T467 307T482 415Q482 488 446 529T355 570H270L228 379H344L324 289H208Z"  />
<glyph unicode="&#xD1;" horiz-adv-x="592" d="M463 721Q438 721 425 733T404 761T387 789T363 802Q349 802 337 784T317 727H262Q275 787 300 824T371 861Q396 861 409 849T430 821T447 794T471 781Q485 781 496 798T517 855H572Q559 795 534 758T463 721ZM368 0L220 452L121 0H10L157 667H269L413 229L510 667H621L474 0H368Z"  />
<glyph unicode="&#xD2;" horiz-adv-x="612" d="M395 723L293 867H386L463 723H395ZM281 -12Q227 -12 183 6T108 57T60 135T43 237Q43 314 65 392T130 534T232 638T370 678Q424 678 468 660T543 609T591 530T608 429Q608 352 586 274T521 132T418 28T281 -12ZM287 87Q332 87 369 118T434 197T477 306T493 426Q493 498 457 539T363 580Q318 580 280 549T215 469T173 359T157 239Q157 167 192 127T287 87Z"  />
<glyph unicode="&#xD3;" horiz-adv-x="612" d="M430 723H360L502 867H596L430 723ZM281 -12Q227 -12 183 6T108 57T60 135T43 237Q43 314 65 392T130 534T232 638T370 678Q424 678 468 660T543 609T591 530T608 429Q608 352 586 274T521 132T418 28T281 -12ZM287 87Q332 87 369 118T434 197T477 306T493 426Q493 498 457 539T363 580Q318 580 280 549T215 469T173 359T157 239Q157 167 192 127T287 87Z"  />
<glyph unicode="&#xD4;" horiz-adv-x="612" d="M480 723L434 820L349 723H287L398 867H489L538 723H480ZM281 -12Q227 -12 183 6T108 57T60 135T43 237Q43 314 65 392T130 534T232 638T370 678Q424 678 468 660T543 609T591 530T608 429Q608 352 586 274T521 132T418 28T281 -12ZM287 87Q332 87 369 118T434 197T477 306T493 426Q493 498 457 539T363 580Q318 580 280 549T215 469T173 359T157 239Q157 167 192 127T287 87Z"  />
<glyph unicode="&#xD5;" horiz-adv-x="612" d="M281 -12Q227 -12 183 6T108 57T60 135T43 237Q43 314 65 392T130 534T232 638T370 678Q424 678 468 660T543 609T591 530T608 429Q608 352 586 274T521 132T418 28T281 -12ZM287 87Q332 87 369 118T434 197T477 306T493 426Q493 498 457 539T363 580Q318 580 280 549T215 469T173 359T157 239Q157 167 192 127T287 87ZM473 721Q448 721 435 733T414 761T397 789T373 802Q359 802 347 784T327 727H272Q285 787 310 824T381 861Q406 861 419 849T440 821T457 794T481 781Q495 781 506 798T527 855H582Q569 795 544 758T473 721Z"  />
<glyph unicode="&#xD6;" horiz-adv-x="612" d="M571 780Q571 756 552 737T507 718Q486 718 472 732T457 768Q457 793 476 811T521 830Q542 830 556 816T571 780ZM390 780Q390 756 371 737T326 718Q305 718 291 732T276 768Q276 793 295 811T340 830Q361 830 375 816T390 780ZM281 -12Q227 -12 183 6T108 57T60 135T43 237Q43 314 65 392T130 534T232 638T370 678Q424 678 468 660T543 609T591 530T608 429Q608 352 586 274T521 132T418 28T281 -12ZM287 87Q332 87 369 118T434 197T477 306T493 426Q493 498 457 539T363 580Q318 580 280 549T215 469T173 359T157 239Q157 167 192 127T287 87Z"  />
<glyph unicode="&#xD7;" d="M234 288L81 163L41 212L196 338L101 460L152 502L246 380L400 506L440 456L286 330L380 208L329 167L234 288Z"  />
<glyph unicode="&#xD8;" horiz-adv-x="612" d="M281 -12Q186 -12 124 41L91 0H15L84 86Q43 147 43 237Q43 314 65 392T130 534T232 638T370 678Q416 678 454 665T523 627L555 667H630L563 584Q608 519 608 429Q608 352 586 274T521 132T418 28T281 -12ZM287 87Q332 87 369 118T434 197T477 306T493 426Q493 460 484 487L193 126Q229 87 287 87ZM157 239Q157 208 163 184L454 542Q418 580 363 580Q318 580 280 549T215 469T173 359T157 239Z"  />
<glyph unicode="&#xD9;" horiz-adv-x="592" d="M272 -12Q171 -12 113 40T55 180Q55 191 56 204T60 226L157 667H268L170 223Q169 218 168 208T167 188Q167 143 195 115T276 86Q333 86 365 121T412 223L510 667H621L523 224Q498 111 439 50T272 -12ZM383 723L281 867H374L451 723H383Z"  />
<glyph unicode="&#xDA;" horiz-adv-x="592" d="M418 723H348L490 867H584L418 723ZM272 -12Q171 -12 113 40T55 180Q55 191 56 204T60 226L157 667H268L170 223Q169 218 168 208T167 188Q167 143 195 115T276 86Q333 86 365 121T412 223L510 667H621L523 224Q498 111 439 50T272 -12Z"  />
<glyph unicode="&#xDB;" horiz-adv-x="592" d="M469 723L423 820L338 723H276L387 867H478L527 723H469ZM272 -12Q171 -12 113 40T55 180Q55 191 56 204T60 226L157 667H268L170 223Q169 218 168 208T167 188Q167 143 195 115T276 86Q333 86 365 121T412 223L510 667H621L523 224Q498 111 439 50T272 -12Z"  />
<glyph unicode="&#xDC;" horiz-adv-x="592" d="M559 780Q559 756 540 737T495 718Q474 718 460 732T445 768Q445 793 464 811T509 830Q530 830 544 816T559 780ZM378 780Q378 756 359 737T314 718Q293 718 279 732T264 768Q264 793 283 811T328 830Q349 830 363 816T378 780ZM272 -12Q171 -12 113 40T55 180Q55 191 56 204T60 226L157 667H268L170 223Q169 218 168 208T167 188Q167 143 195 115T276 86Q333 86 365 121T412 223L510 667H621L523 224Q498 111 439 50T272 -12Z"  />
<glyph unicode="&#xDD;" horiz-adv-x="521" d="M152 0L213 278L92 667H209L285 382L487 667H615L323 278L262 0H152ZM384 723H314L456 867H550L384 723Z"  />
<glyph unicode="&#xDE;" horiz-adv-x="513" d="M10 0L157 667H268L243 553H348Q384 553 414 540T466 504T500 450T512 383Q512 342 499 299T455 220T379 162T266 139H151L121 0H10ZM274 236Q304 236 327 247T365 278T389 322T397 372Q397 410 375 433T318 456H221L173 236H274Z"  />
<glyph unicode="&#xDF;" horiz-adv-x="556" d="M521 150Q521 120 509 91T473 39T417 2T343 -12Q284 -12 242 6T167 66L222 130Q242 104 270 86T340 68Q374 68 395 88T417 137Q417 155 404 167T372 191T330 213T288 240T255 276T242 327Q242 360 253 383T282 422T320 451T358 475T387 500T399 532Q399 558 377 573T320 589Q282 589 255 566T217 494L108 0H9L118 494Q127 533 144 566T187 624T248 663T326 677Q360 677 392 668T449 641T488 600T503 546Q503 514 491 492T461 454T423 425T384 401T354 376T342 344Q342 327 355 315T388 292T431 270T474 243T507 205T521 150Z"  />
<glyph unicode="&#xE0;" horiz-adv-x="494" d="M248 495Q290 495 323 475T374 416L389 483H488L381 0H281L295 62Q242 -12 169 -12Q103 -12 64 32T25 162Q25 213 39 271T82 379T152 462T248 495ZM266 407Q234 407 209 384T166 326T139 251T129 178Q129 129 152 103T214 76Q243 76 269 96T313 144L357 340Q347 369 323 388T266 407ZM295 556L193 700H286L363 556H295Z"  />
<glyph unicode="&#xE1;" horiz-adv-x="494" d="M248 495Q290 495 323 475T374 416L389 483H488L381 0H281L295 62Q242 -12 169 -12Q103 -12 64 32T25 162Q25 213 39 271T82 379T152 462T248 495ZM266 407Q234 407 209 384T166 326T139 251T129 178Q129 129 152 103T214 76Q243 76 269 96T313 144L357 340Q347 369 323 388T266 407ZM329 556H259L401 700H495L329 556Z"  />
<glyph unicode="&#xE2;" horiz-adv-x="494" d="M248 495Q290 495 323 475T374 416L389 483H488L381 0H281L295 62Q242 -12 169 -12Q103 -12 64 32T25 162Q25 213 39 271T82 379T152 462T248 495ZM266 407Q234 407 209 384T166 326T139 251T129 178Q129 129 152 103T214 76Q243 76 269 96T313 144L357 340Q347 369 323 388T266 407ZM380 556L334 653L249 556H187L298 700H389L438 556H380Z"  />
<glyph unicode="&#xE3;" horiz-adv-x="494" d="M248 495Q290 495 323 475T374 416L389 483H488L381 0H281L295 62Q242 -12 169 -12Q103 -12 64 32T25 162Q25 213 39 271T82 379T152 462T248 495ZM266 407Q234 407 209 384T166 326T139 251T129 178Q129 129 152 103T214 76Q243 76 269 96T313 144L357 340Q347 369 323 388T266 407ZM374 554Q349 554 336 566T315 594T298 622T274 635Q260 635 248 617T228 560H173Q186 620 211 657T282 694Q307 694 320 682T341 654T358 627T382 614Q396 614 407 631T428 688H483Q470 628 445 591T374 554Z"  />
<glyph unicode="&#xE4;" horiz-adv-x="494" d="M248 495Q290 495 323 475T374 416L389 483H488L381 0H281L295 62Q242 -12 169 -12Q103 -12 64 32T25 162Q25 213 39 271T82 379T152 462T248 495ZM266 407Q234 407 209 384T166 326T139 251T129 178Q129 129 152 103T214 76Q243 76 269 96T313 144L357 340Q347 369 323 388T266 407ZM471 613Q471 589 452 570T407 551Q386 551 372 565T357 601Q357 626 376 644T421 663Q442 663 456 649T471 613ZM290 613Q290 589 271 570T226 551Q205 551 191 565T176 601Q176 626 195 644T240 663Q261 663 275 649T290 613Z"  />
<glyph unicode="&#xE5;" horiz-adv-x="494" d="M248 495Q290 495 323 475T374 416L389 483H488L381 0H281L295 62Q242 -12 169 -12Q103 -12 64 32T25 162Q25 213 39 271T82 379T152 462T248 495ZM266 407Q234 407 209 384T166 326T139 251T129 178Q129 129 152 103T214 76Q243 76 269 96T313 144L357 340Q347 369 323 388T266 407ZM320 536Q282 536 259 560T235 622Q235 643 243 662T266 695T299 717T339 726Q377 726 400 702T424 640Q424 619 416 600T393 567T360 545T320 536ZM324 584Q345 584 361 599T377 636Q377 655 366 667T335 679Q314 679 298 664T282 627Q282 608 293 596T324 584Z"  />
<glyph unicode="&#xE6;" horiz-adv-x="775" d="M266 407Q234 407 209 384T166 326T139 251T129 178Q129 129 152 103T214 76Q243 76 269 96T313 144L357 340Q347 369 323 388T266 407ZM381 0H281L295 62Q242 -12 169 -12Q103 -12 64 32T25 162Q25 213 39 271T82 379T152 462T248 495Q290 495 323 475T374 416L389 483H488L474 419Q495 448 529 471T607 495Q676 495 713 451T751 316Q751 289 746 259T736 209H430Q427 192 427 174Q427 154 434 136T455 103T490 80T542 71Q570 71 597 83T647 116L681 45Q651 18 615 3T545 -12Q482 -12 448 15T401 91L381 0ZM655 280Q657 289 658 298T659 317Q659 357 638 385T570 414Q544 414 523 402T485 371T457 327T442 280H655Z"  />
<glyph unicode="&#xE7;" horiz-adv-x="415" d="M165 -194Q132 -194 107 -183T64 -155L93 -114Q123 -147 166 -147Q189 -147 202 -135T216 -105Q216 -80 188 -80Q171 -80 159 -94L125 -72L164 -6Q101 8 64 57T27 184Q27 240 45 295T95 395T174 467T276 495Q330 495 368 476T428 424L365 359Q351 383 329 395T280 407Q245 407 217 387T170 335T140 265T129 190Q129 132 158 104T232 76Q258 76 279 87T317 117L356 45Q330 20 296 4T217 -12H213L187 -54Q199 -43 215 -43Q239 -43 254 -59T270 -102Q270 -143 240 -168T165 -194Z"  />
<glyph unicode="&#xE8;" horiz-adv-x="474" d="M226 -12Q133 -12 80 39T27 184Q27 234 43 289T91 389T169 465T273 495Q354 495 401 446T448 309Q448 283 444 255T434 209H127Q125 201 124 192T123 174Q123 155 129 137T150 103T186 79T238 70Q266 70 294 81T345 113L379 48Q348 19 308 4T226 -12ZM354 280Q356 288 357 298T358 317Q358 357 335 385T265 414Q239 414 218 402T181 371T154 327T139 280H354ZM296 556L194 700H287L364 556H296Z"  />
<glyph unicode="&#xE9;" horiz-adv-x="474" d="M332 556H262L404 700H498L332 556ZM226 -12Q133 -12 80 39T27 184Q27 234 43 289T91 389T169 465T273 495Q354 495 401 446T448 309Q448 283 444 255T434 209H127Q125 201 124 192T123 174Q123 155 129 137T150 103T186 79T238 70Q266 70 294 81T345 113L379 48Q348 19 308 4T226 -12ZM354 280Q356 288 357 298T358 317Q358 357 335 385T265 414Q239 414 218 402T181 371T154 327T139 280H354Z"  />
<glyph unicode="&#xEA;" horiz-adv-x="474" d="M381 556L335 653L250 556H188L299 700H390L439 556H381ZM226 -12Q133 -12 80 39T27 184Q27 234 43 289T91 389T169 465T273 495Q354 495 401 446T448 309Q448 283 444 255T434 209H127Q125 201 124 192T123 174Q123 155 129 137T150 103T186 79T238 70Q266 70 294 81T345 113L379 48Q348 19 308 4T226 -12ZM354 280Q356 288 357 298T358 317Q358 357 335 385T265 414Q239 414 218 402T181 371T154 327T139 280H354Z"  />
<glyph unicode="&#xEB;" horiz-adv-x="474" d="M473 613Q473 589 454 570T409 551Q388 551 374 565T359 601Q359 626 378 644T423 663Q444 663 458 649T473 613ZM292 613Q292 589 273 570T228 551Q207 551 193 565T178 601Q178 626 197 644T242 663Q263 663 277 649T292 613ZM226 -12Q133 -12 80 39T27 184Q27 234 43 289T91 389T169 465T273 495Q354 495 401 446T448 309Q448 283 444 255T434 209H127Q125 201 124 192T123 174Q123 155 129 137T150 103T186 79T238 70Q266 70 294 81T345 113L379 48Q348 19 308 4T226 -12ZM354 280Q356 288 357 298T358 317Q358 357 335 385T265 414Q239 414 218 402T181 371T154 327T139 280H354Z"  />
<glyph unicode="&#xEC;" horiz-adv-x="218" d="M5 0L112 483H212L105 0H5ZM162 556L60 700H153L230 556H162Z"  />
<glyph unicode="&#xED;" horiz-adv-x="218" d="M195 556H125L267 700H361L195 556ZM5 0L112 483H212L105 0H5Z"  />
<glyph unicode="&#xEE;" horiz-adv-x="218" d="M248 556L202 653L117 556H55L166 700H257L306 556H248ZM5 0L112 483H212L105 0H5Z"  />
<glyph unicode="&#xEF;" horiz-adv-x="218" d="M339 613Q339 589 320 570T275 551Q254 551 240 565T225 601Q225 626 244 644T289 663Q310 663 324 649T339 613ZM158 613Q158 589 139 570T94 551Q73 551 59 565T44 601Q44 626 63 644T108 663Q129 663 143 649T158 613ZM5 0L112 483H212L105 0H5Z"  />
<glyph unicode="&#xF0;" horiz-adv-x="488" d="M162 551L286 588Q275 605 263 620T239 650L323 703Q341 681 357 660T387 618L475 644L488 595L414 573Q469 472 469 364Q469 300 453 233T406 112T327 23T217 -12Q126 -12 76 39T25 176Q25 228 41 280T86 375T155 443T245 470Q290 470 323 447T372 378Q366 416 351 458T313 543L175 502L162 551ZM219 76Q249 76 273 96T316 147T343 214T353 283Q353 301 348 318T331 350T303 373T260 382Q230 382 206 362T165 312T138 246T128 179Q128 128 151 102T219 76Z"  />
<glyph unicode="&#xF1;" horiz-adv-x="485" d="M272 0L345 329Q347 334 348 342T349 355Q349 383 333 395T292 407Q257 407 228 386T179 339L105 0H5L112 483H212L197 419Q223 448 259 471T340 495Q394 495 425 469T456 395Q456 390 455 378T451 360L372 0H272ZM372 554Q347 554 334 566T313 594T296 622T272 635Q258 635 246 617T226 560H171Q184 620 209 657T280 694Q305 694 318 682T339 654T356 627T380 614Q394 614 405 631T426 688H481Q468 628 443 591T372 554Z"  />
<glyph unicode="&#xF2;" horiz-adv-x="488" d="M214 -12Q124 -12 75 40T26 181Q26 235 43 291T92 392T169 466T272 495Q363 495 411 443T460 302Q460 248 443 192T394 91T317 17T214 -12ZM218 76Q250 76 276 99T320 155T348 228T358 301Q358 355 334 381T268 407Q236 407 210 384T166 328T138 255T128 182Q128 128 152 102T218 76ZM296 556L194 700H287L364 556H296Z"  />
<glyph unicode="&#xF3;" horiz-adv-x="488" d="M330 556H260L402 700H496L330 556ZM214 -12Q124 -12 75 40T26 181Q26 235 43 291T92 392T169 466T272 495Q363 495 411 443T460 302Q460 248 443 192T394 91T317 17T214 -12ZM218 76Q250 76 276 99T320 155T348 228T358 301Q358 355 334 381T268 407Q236 407 210 384T166 328T138 255T128 182Q128 128 152 102T218 76Z"  />
<glyph unicode="&#xF4;" horiz-adv-x="488" d="M381 556L335 653L250 556H188L299 700H390L439 556H381ZM214 -12Q124 -12 75 40T26 181Q26 235 43 291T92 392T169 466T272 495Q363 495 411 443T460 302Q460 248 443 192T394 91T317 17T214 -12ZM218 76Q250 76 276 99T320 155T348 228T358 301Q358 355 334 381T268 407Q236 407 210 384T166 328T138 255T128 182Q128 128 152 102T218 76Z"  />
<glyph unicode="&#xF5;" horiz-adv-x="488" d="M214 -12Q124 -12 75 40T26 181Q26 235 43 291T92 392T169 466T272 495Q363 495 411 443T460 302Q460 248 443 192T394 91T317 17T214 -12ZM218 76Q250 76 276 99T320 155T348 228T358 301Q358 355 334 381T268 407Q236 407 210 384T166 328T138 255T128 182Q128 128 152 102T218 76ZM375 554Q350 554 337 566T316 594T299 622T275 635Q261 635 249 617T229 560H174Q187 620 212 657T283 694Q308 694 321 682T342 654T359 627T383 614Q397 614 408 631T429 688H484Q471 628 446 591T375 554Z"  />
<glyph unicode="&#xF6;" horiz-adv-x="488" d="M472 613Q472 589 453 570T408 551Q387 551 373 565T358 601Q358 626 377 644T422 663Q443 663 457 649T472 613ZM291 613Q291 589 272 570T227 551Q206 551 192 565T177 601Q177 626 196 644T241 663Q262 663 276 649T291 613ZM214 -12Q124 -12 75 40T26 181Q26 235 43 291T92 392T169 466T272 495Q363 495 411 443T460 302Q460 248 443 192T394 91T317 17T214 -12ZM218 76Q250 76 276 99T320 155T348 228T358 301Q358 355 334 381T268 407Q236 407 210 384T166 328T138 255T128 182Q128 128 152 102T218 76Z"  />
<glyph unicode="&#xF7;" horiz-adv-x="443" d="M43 305L57 370H441L427 305H43ZM200 119Q180 119 166 133T152 167Q152 191 169 208T210 225Q230 225 244 211T258 176Q258 152 241 136T200 119ZM273 447Q253 447 239 461T225 496Q225 519 242 536T283 553Q303 553 317 539T331 504Q331 480 314 464T273 447Z"  />
<glyph unicode="&#xF8;" horiz-adv-x="488" d="M-11 0L53 70Q26 115 26 181Q26 235 43 291T92 392T169 466T272 495Q352 495 401 452L429 483H495L432 414Q460 367 460 302Q460 248 443 192T394 91T317 17T214 -12Q133 -12 83 32L54 0H-11ZM218 76Q250 76 276 99T320 155T348 228T358 301Q358 316 355 330L149 105Q172 76 218 76ZM128 182Q128 174 128 168T130 154L335 379Q311 407 268 407Q236 407 210 384T166 328T138 255T128 182Z"  />
<glyph unicode="&#xF9;" horiz-adv-x="485" d="M212 483L139 155Q137 148 136 141T135 128Q135 101 152 89T197 76Q228 76 256 97T304 144L379 483H479L372 0H272L287 64Q261 35 225 12T144 -12Q90 -12 59 14T28 88Q28 94 29 105T33 123L112 483H212ZM295 556L193 700H286L363 556H295Z"  />
<glyph unicode="&#xFA;" horiz-adv-x="485" d="M329 556H259L401 700H495L329 556ZM212 483L139 155Q137 148 136 141T135 128Q135 101 152 89T197 76Q228 76 256 97T304 144L379 483H479L372 0H272L287 64Q261 35 225 12T144 -12Q90 -12 59 14T28 88Q28 94 29 105T33 123L112 483H212Z"  />
<glyph unicode="&#xFB;" horiz-adv-x="485" d="M380 556L334 653L249 556H187L298 700H389L438 556H380ZM212 483L139 155Q137 148 136 141T135 128Q135 101 152 89T197 76Q228 76 256 97T304 144L379 483H479L372 0H272L287 64Q261 35 225 12T144 -12Q90 -12 59 14T28 88Q28 94 29 105T33 123L112 483H212Z"  />
<glyph unicode="&#xFC;" horiz-adv-x="485" d="M472 613Q472 589 453 570T408 551Q387 551 373 565T358 601Q358 626 377 644T422 663Q443 663 457 649T472 613ZM291 613Q291 589 272 570T227 551Q206 551 192 565T177 601Q177 626 196 644T241 663Q262 663 276 649T291 613ZM212 483L139 155Q137 148 136 141T135 128Q135 101 152 89T197 76Q228 76 256 97T304 144L379 483H479L372 0H272L287 64Q261 35 225 12T144 -12Q90 -12 59 14T28 88Q28 94 29 105T33 123L112 483H212Z"  />
<glyph unicode="&#xFD;" horiz-adv-x="430" d="M-19 -100Q-14 -104 -4 -105T17 -107Q34 -107 46 -98T71 -68L106 -7L55 483H158L184 120L373 483H482L164 -91Q130 -150 96 -173T15 -196Q-4 -196 -22 -193T-52 -185L-19 -100ZM298 556H228L370 700H464L298 556Z"  />
<glyph unicode="&#xFE;" horiz-adv-x="492" d="M245 -12Q203 -12 170 8T119 67L64 -184H-36L152 667H252L197 421Q250 495 324 495Q390 495 429 451T468 321Q468 270 454 212T411 104T341 21T245 -12ZM228 76Q260 76 285 99T327 157T354 232T364 305Q364 354 341 380T279 407Q250 407 223 387T179 339L136 143Q146 114 170 95T228 76Z"  />
<glyph unicode="&#xFF;" horiz-adv-x="430" d="M-19 -100Q-14 -104 -4 -105T17 -107Q34 -107 46 -98T71 -68L106 -7L55 483H158L184 120L373 483H482L164 -91Q130 -150 96 -173T15 -196Q-4 -196 -22 -193T-52 -185L-19 -100ZM441 613Q441 589 422 570T377 551Q356 551 342 565T327 601Q327 626 346 644T391 663Q412 663 426 649T441 613ZM260 613Q260 589 241 570T196 551Q175 551 161 565T146 601Q146 626 165 644T210 663Q231 663 245 649T260 613Z"  />
<glyph unicode="&#x110;" horiz-adv-x="606" d="M34 0L97 289H23L43 379H117L181 667H376Q418 667 458 651T528 603T577 525T596 419Q596 375 588 328T562 233T516 144T447 70T354 19T233 0H34ZM208 289L166 98H252Q309 98 352 128T424 204T467 307T482 415Q482 488 446 529T355 570H270L228 379H344L324 289H208Z"  />
<glyph unicode="&#x131;" horiz-adv-x="218" d="M5 0L112 483H212L105 0H5Z"  />
<glyph unicode="&#x152;" horiz-adv-x="855" d="M394 0L409 72Q377 27 335 8T245 -12Q200 -12 163 6T99 56T57 135T42 237Q42 318 65 397T131 538T234 639T367 677Q415 677 458 655T522 578L541 667H906L885 570H631L591 389H838L816 291H569L526 98H780L759 0H394ZM494 452Q485 515 453 547T369 579Q321 579 282 548T215 468T172 359T157 239Q157 170 190 129T282 87Q327 87 368 116T438 198L494 452Z"  />
<glyph unicode="&#x153;" horiz-adv-x="788" d="M446 209Q445 205 444 192T443 174Q443 131 470 101T555 70Q582 70 609 81T660 114L695 48Q664 19 625 4T543 -12Q509 -12 482 -3T435 21T401 56T382 97Q368 76 352 57T315 22T269 -2T212 -12Q124 -12 75 38T26 181Q26 236 43 292T91 393T168 466T270 495Q301 495 326 486T370 462T402 428T421 387Q434 408 451 427T489 462T535 486T590 495Q628 495 660 483T715 448T751 390T764 309Q764 282 760 255T750 209H446ZM669 280Q671 287 672 298T674 317Q674 359 652 386T583 414Q556 414 535 401T498 369T472 326T458 280H669ZM354 301Q354 355 330 381T266 407Q235 407 210 385T166 330T138 257T128 182Q128 133 150 105T216 76Q248 76 273 98T317 155T344 228T354 301Z"  />
<glyph unicode="&#x160;" horiz-adv-x="486" d="M308 723L258 867H316L361 770L447 867H509L399 723H308ZM217 -12Q181 -12 148 -5T85 16T32 47T-7 86L62 167Q87 131 130 109T222 87Q272 87 299 117T327 189Q327 214 310 233T266 270T209 306T152 346T108 399T90 471Q90 513 106 550T152 616T223 661T312 678Q371 678 424 656T510 594L444 514Q418 546 380 563T303 580Q282 580 265 573T234 553T214 524T207 490Q207 466 224 448T268 413T325 377T382 335T426 281T444 208Q444 164 428 124T383 54T311 6T217 -12Z"  />
<glyph unicode="&#x161;" horiz-adv-x="401" d="M228 556L178 700H236L281 603L367 700H429L319 556H228ZM169 -12Q111 -12 63 9T-13 66L45 133Q62 107 97 87T174 67Q209 67 230 87T252 134Q252 153 238 166T202 192T155 216T109 246T73 285T58 340Q58 370 69 398T102 447T156 482T231 495Q281 495 325 476T395 424L342 360Q335 371 323 381T296 399T264 411T229 416Q194 416 175 400T155 357Q155 340 169 328T206 303T253 278T301 248T337 208T352 152Q352 119 340 89T303 37T245 1T169 -12Z"  />
<glyph unicode="&#x178;" horiz-adv-x="521" d="M527 780Q527 756 508 737T463 718Q442 718 428 732T413 768Q413 793 432 811T477 830Q498 830 512 816T527 780ZM346 780Q346 756 327 737T282 718Q261 718 247 732T232 768Q232 793 251 811T296 830Q317 830 331 816T346 780ZM152 0L213 278L92 667H209L285 382L487 667H615L323 278L262 0H152Z"  />
<glyph unicode="&#x17D;" horiz-adv-x="475" d="M297 723L247 867H305L350 770L436 867H498L388 723H297ZM-17 0L4 92L361 570H110L131 667H523L504 577L144 98H405L383 0H-17Z"  />
<glyph unicode="&#x17E;" horiz-adv-x="399" d="M222 556L172 700H230L275 603L361 700H423L313 556H222ZM-16 0L0 76L261 396H72L91 483H409L393 410L131 87H325L306 0H-16Z"  />
<glyph unicode="&#x192;" horiz-adv-x="414" d="M-38 -161L52 247H0V335H72L117 539Q131 602 168 639T267 677Q295 677 323 670T372 642L333 561Q318 580 290 580Q264 580 248 562T225 514L185 335H289V247H165L75 -161H-38Z"  />
<glyph unicode="&#x2C6;" horiz-adv-x="251" d="M262 556L216 653L131 556H69L180 700H271L320 556H262Z"  />
<glyph unicode="&#x2C7;" horiz-adv-x="251" d="M151 556L101 700H159L204 603L290 700H352L242 556H151Z"  />
<glyph unicode="&#x2DA;" horiz-adv-x="188" d="M170 538Q132 538 109 562T85 624Q85 645 93 664T116 697T149 719T189 728Q227 728 250 704T274 642Q274 621 266 602T243 569T210 547T170 538ZM174 586Q195 586 211 601T227 638Q227 657 216 669T185 681Q164 681 148 666T132 629Q132 610 143 598T174 586Z"  />
<glyph unicode="&#x2DC;" horiz-adv-x="282" d="M271 554Q246 554 233 566T212 594T195 622T171 635Q157 635 145 617T125 560H70Q83 620 108 657T179 694Q204 694 217 682T238 654T255 627T279 614Q293 614 304 631T325 688H380Q367 628 342 591T271 554Z"  />
<glyph unicode="&#x2013;" horiz-adv-x="527" d="M20 199L39 285H505L486 199H20Z"  />
<glyph unicode="&#x2014;" horiz-adv-x="737" d="M20 199L39 285H715L696 199H20Z"  />
<glyph unicode="&#x2018;" horiz-adv-x="243" d="M104 498Q104 524 114 550T142 600T183 644T234 677L272 638Q245 625 219 603T181 554Q183 555 185 555T190 555Q211 555 226 541T242 500Q242 485 236 473T220 450T196 435T168 429Q142 429 123 446T104 498Z"  />
<glyph unicode="&#x2019;" horiz-adv-x="243" d="M273 608Q273 582 263 556T235 506T193 462T142 428L105 467Q132 481 158 503T195 551H186Q166 551 151 565T135 605Q135 635 157 656T208 677Q234 677 253 660T273 608Z"  />
<glyph unicode="&#x201A;" horiz-adv-x="243" d="M150 55Q150 29 140 3T112 -48T71 -92T20 -126L-18 -86Q9 -73 35 -51T73 -2Q71 -3 68 -3T63 -3Q43 -3 28 11T12 52Q12 67 18 80T34 102T58 118T85 124Q111 124 130 107T150 55Z"  />
<glyph unicode="&#x201C;" horiz-adv-x="423" d="M286 498Q286 524 296 550T324 600T365 644T416 677L454 638Q427 625 401 603T363 554Q365 555 368 555T373 555Q393 555 408 541T424 500Q424 485 418 473T402 450T378 435T351 429Q325 429 306 446T286 498ZM107 498Q107 524 117 550T145 600T186 644T237 677L274 638Q247 625 221 603T184 554Q186 555 188 555T193 555Q214 555 229 541T245 500Q245 485 239 473T223 450T199 435T171 429Q145 429 126 446T107 498Z"  />
<glyph unicode="&#x201D;" horiz-adv-x="423" d="M273 608Q273 582 263 556T235 506T193 462T142 428L105 467Q132 481 158 503T195 551H186Q166 551 151 565T135 605Q135 635 157 656T208 677Q234 677 253 660T273 608ZM452 608Q452 582 442 556T414 506T373 462T322 428L285 467Q312 481 338 503T375 551H366Q345 551 330 565T314 605Q314 635 336 656T387 677Q413 677 432 660T452 608Z"  />
<glyph unicode="&#x201E;" horiz-adv-x="423" d="M150 55Q150 29 140 3T112 -48T71 -92T20 -126L-18 -86Q9 -73 35 -51T73 -2Q71 -3 68 -3T63 -3Q43 -3 28 11T12 52Q12 67 18 80T34 102T58 118T85 124Q111 124 130 107T150 55ZM329 55Q329 29 319 3T291 -48T250 -92T199 -126L162 -86Q189 -73 215 -51T252 -2Q251 -3 248 -3T243 -3Q222 -3 207 11T191 52Q191 67 197 80T213 102T237 118T265 124Q291 124 310 107T329 55Z"  />
<glyph unicode="&#x2020;" horiz-adv-x="270" d="M223 531L181 327H124L174 531L84 527L95 579L184 576L202 677H259L232 576L322 579L311 527L223 531Z"  />
<glyph unicode="&#x2021;" horiz-adv-x="270" d="M311 527L223 531L177 327L267 331L256 279L168 282L148 180H91L118 282L29 279L40 331L128 327L173 531L84 527L95 579L183 576L202 677H259L232 576L322 579L311 527Z"  />
<glyph unicode="&#x2022;" horiz-adv-x="358" d="M293 253Q293 228 283 206T255 167T215 140T167 130Q123 130 94 159T65 232Q65 257 75 279T103 318T143 345T191 355Q235 355 264 326T293 253Z"  />
<glyph unicode="&#x2026;" horiz-adv-x="726" d="M73 -11Q47 -11 30 7T12 51Q12 81 34 102T86 124Q112 124 129 106T147 62Q147 32 125 11T73 -11ZM315 -11Q289 -11 272 7T254 51Q254 81 276 102T328 124Q354 124 371 106T389 62Q389 32 367 11T315 -11ZM557 -11Q531 -11 514 7T496 51Q496 81 518 102T570 124Q596 124 613 106T631 62Q631 32 609 11T557 -11Z"  />
<glyph unicode="&#x2030;" horiz-adv-x="980" d="M75 0L573 667H630L131 0H75ZM454 -12Q394 -12 358 24T321 118Q321 161 335 198T372 262T425 304T488 319Q517 319 541 309T583 282T611 241T621 189Q621 145 607 109T570 45T516 3T454 -12ZM457 52Q474 52 490 62T519 89T540 130T548 182Q548 217 531 236T485 255Q468 255 452 245T422 218T401 177T393 125Q393 90 410 71T457 52ZM214 347Q184 347 160 356T119 383T92 424T82 477Q82 520 95 557T132 620T185 662T248 677Q308 677 344 641T380 547Q380 503 367 467T330 404T277 362T214 347ZM217 410Q234 410 250 420T280 447T301 489T309 541Q309 575 292 594T245 613Q228 613 212 603T182 576T161 535T153 483Q153 448 170 429T217 410ZM771 -12Q742 -12 718 -2T676 25T648 66T638 118Q638 161 652 198T689 262T742 304T805 319Q865 319 901 283T938 189Q938 145 924 109T887 45T834 3T771 -12ZM774 52Q791 52 807 62T837 89T858 130T866 182Q866 217 849 236T802 255Q785 255 769 245T739 218T719 177T711 125Q711 90 728 71T774 52Z"  />
<glyph unicode="&#x2039;" horiz-adv-x="272" d="M114 63L29 243L194 420H284L116 239L198 63H114Z"  />
<glyph unicode="&#x203A;" horiz-adv-x="272" d="M159 420L244 240L79 63H-11L158 245L75 420H159Z"  />
<glyph unicode="&#x2044;" horiz-adv-x="138" d="M-133 0H-190L309 667H366L-133 0Z"  />
<glyph unicode="&#x20AC;" horiz-adv-x="565" d="M302 -12Q249 -12 206 4T132 52T83 129T64 232H17L32 296H67Q69 316 72 335T81 373H49L63 437H100Q119 488 148 532T214 608T295 659T391 678Q439 678 475 664T538 626T582 570T608 503L503 474Q489 525 459 552T384 580Q358 580 335 569T291 539T253 494T221 437H415L400 373H198Q192 354 188 335T181 296H383L369 232H178Q180 163 214 125T308 87Q343 87 375 107T435 166L521 117Q477 51 421 20T302 -12Z"  />
<glyph unicode="&#x2122;" horiz-adv-x="414" d="M396 447L436 629L331 447H323L298 629L258 447H230L278 667H321L341 509L429 667H472L424 447H396ZM185 641L142 447H114L157 641H105L110 667H242L237 641H185Z"  />
<glyph unicode="&#xF656;" horiz-adv-x="248" d="M63 0L128 297L55 236L19 283L162 400H228L140 0H63Z"  />
<glyph unicode="&#xF657;" horiz-adv-x="337" d="M-16 0L-2 61Q65 110 111 145T185 206T225 253T238 294Q238 319 221 331T177 344Q149 344 125 332T83 298L47 349Q73 376 108 391T181 406Q208 406 232 400T275 380T305 347T316 301Q316 272 302 246T260 191T193 132T103 62H266L253 0H-16Z"  />
<glyph unicode="&#xF658;" horiz-adv-x="337" d="M280 117Q280 95 271 73T243 33T199 4T139 -7Q88 -7 49 12T-9 65L45 109Q59 83 82 69T135 55Q170 55 187 78T204 127Q204 150 185 162T134 174Q126 174 118 174T104 173L118 235Q124 234 140 234T165 234Q198 234 217 251T237 297Q237 320 218 332T171 344Q122 344 82 304L49 350Q74 376 108 391T178 406Q238 406 276 381T315 307Q315 288 308 270T289 238T257 213T214 200Q243 192 261 171T280 117Z"  />
<glyph unicode="&#xF659;" horiz-adv-x="337" d="M237 94L217 0H141L161 94H-10L3 151L205 400H305L251 155H295L282 94H237ZM211 321L76 155H174L211 321Z"  />


</font>
</defs>
</svg>
